Patient4_TMGait_0pt7_02_left_12_EMG.mot
version=1
nRows=30
nColumns=33
inDegrees=no
endheader
time	1LAddLong	2LGlutMax	3LGlutMed	4LIliopsoas	5LSemiMemb	6LBicFemLong	7LRecFem	8LVastMed	9LVastLat	10LGasMed	11LTibAnt	12lTibPost	13LPeroneusLong	14LSol	15LExtDigLong	16LFlexDigLong	17RAddLong	18RGlutMax	19RGlutMed	20RIliopsoas	21RSemiMemb	22RBicFemLong	23RRecFem	24RVastMed	25RVastLat	26RGasMed	27RTibAnt	28RTibPost	29RPeroneusLong	30RSol	31RExtDigLong	32RFlexDigLong
14.2	0.011292	-0.10773	0.002747	0.020294	0.043945	-0.12604	-0.23987	0.001221	-0.035858	0.82413	0.010529	-0.042572	0.14008	-0.23148	0.035858	-0.09201	0.21332	-0.056763	0.99899	0.061493	-0.28305	0.062714	-0.17456	-0.2327	0.059204	-0.00824	0.059509	-0.009308	0.25681	-0.12711	-0.000305	-0.003662
14.201	0.003204	-0.088806	-0.007782	0.005341	0.044098	-0.058289	-0.22873	0.001526	-0.039063	0.62225	0.001678	-0.021515	0.12329	-0.30441	0.052643	0.035095	0.066376	-0.07782	0.29129	0.15381	-0.68665	0.081635	-0.15701	0.045319	0.029907	-0.007324	0.16403	-0.005798	0.48019	-0.11154	0.001984	-0.006409
14.202	0.013275	-0.1265	-0.003662	-0.012817	0.056763	-0.084686	-0.21942	0.007477	-0.050354	0.022125	0.009918	0.02243	-0.082245	-0.099792	0.059814	-0.41596	0.013123	-0.19836	0.5481	0.16846	-0.32806	-0.056763	-0.007629	0.1268	-0.077362	-0.004578	0.12726	-0.002136	0.45715	-0.13916	0.001526	-0.00412
14.203	0.007019	-0.087891	0.001526	-0.001526	0.026398	-0.002441	-0.21088	0.005951	-0.046997	-0.94589	-0.002899	0.12405	-0.22873	0.057831	0.062866	0.26489	0.014343	-0.16312	0.44815	0.19684	0.38879	-0.13687	0.052795	-0.015106	-0.2536	-0.005646	-0.28534	-0.006866	0.21362	-0.1239	0.002289	-0.010834
14.204	0.000458	-0.09964	-0.011139	0.037079	-0.002441	0.056	-0.20721	0.012512	-0.053711	-0.90012	-0.009003	0.32562	-0.2214	0.17975	0.031433	-0.49088	0.071716	-0.15961	0.50949	0.21713	0.43488	-0.16388	-0.075226	0.15564	-0.36148	-0.009613	-0.32913	0.00061	0.063477	-0.12451	0.003052	-0.013885
14.205	0.006256	-0.098419	-0.000153	0.027771	-0.002747	0.10574	-0.19867	0.002899	-0.065155	-0.29358	0.004272	-0.028992	-0.31265	0.16464	0.000305	0.22247	0.075531	-0.062408	0.62988	0.18631	0.37125	-0.18295	-0.15869	0.48126	-0.3801	-0.005798	-0.12085	-0.005035	0.23178	-0.084991	0.001373	-0.01709
14.206	0.006409	-0.093689	-0.000305	0.019073	-0.012665	0.033875	-0.17319	0.012207	-0.06897	0.56686	0.022888	0.016785	-0.30502	0.24719	-0.028839	1.0004	0.072021	0.12314	0.98526	0.024261	0.14038	-0.25635	0.065613	0.7518	-0.22675	-0.00824	0.22492	-0.005493	-0.3952	-0.074158	-0.00412	-0.012817
14.207	0.014496	-0.075989	-0.015869	0.010529	0.015411	-0.081635	-0.16663	0.017395	-0.064392	0.9906	0.023346	0.39093	-0.067596	0.59448	-0.030823	-0.78445	-0.00946	0.17288	0.30777	0.013885	-0.27481	-0.1239	0.13763	0.75165	0.038605	-0.016632	0.36758	-0.007019	-0.29465	-0.072784	0.002441	-0.015564
14.208	0.018158	-0.09964	-0.020905	0.008698	0.023804	-0.089722	-0.15701	0.006714	-0.057068	0.84488	0.005951	0.11993	0.24811	0.85251	-0.037537	0.039368	-0.095367	0.12955	-0.14145	0.020752	-0.2002	-0.048981	0.09613	0.53635	0.13825	-0.019379	0.42938	-0.001984	-0.060883	0.041046	0.001068	-0.010681
14.209	0.007629	-0.097504	-0.023956	0.020142	0.028839	-0.021667	-0.16129	0.00946	-0.052185	0.15106	-0.008087	-0.41992	0.54001	0.39734	-0.052643	0.65079	-0.17181	0.21194	-0.26428	-0.006256	0.062561	-0.01236	-0.19226	0.39734	0.20493	-0.000458	0.13489	-0.003357	0.056763	-0.038757	-0.004883	-0.007629
14.21	0.014954	-0.18768	-0.001068	0.005341	0.029907	-0.049286	-0.13397	0.016174	-0.070801	-0.69961	-0.011139	-0.29572	0.52338	0.40466	-0.10925	-0.23575	-0.16403	0.11856	0.58945	-0.073853	0.37247	-0.086365	-0.63568	0.40832	0.39932	0.01358	-1.2361	-0.003204	0.34439	-0.10986	-0.001526	-0.005188
14.211	-0.001984	-0.1648	-0.020599	-0.00946	0.022583	0.037994	-0.13062	0.006409	-0.065002	-0.67276	-0.011444	0.2829	0.34851	1.2077	-0.1178	-0.26566	-0.10956	-0.046844	0.94498	-0.10117	0.35156	-0.32806	-0.71503	0.21759	0.45044	0.000763	-1.4084	-0.00473	0.26154	-0.064697	0	-0.001678
14.212	-0.001068	-0.16556	-0.007782	-0.003357	0.010071	0.11932	-0.093231	0.009766	-0.060272	-0.17563	-0.001984	0.016937	0.046844	0.59189	-0.046997	0.336	-0.053558	-0.080872	1.8806	-0.11673	0.22644	-0.59708	-0.43976	-0.43411	0.27344	-0.001984	-0.85373	-0.004883	0.11185	0.079193	-0.002441	-0.002136
14.213	0.016785	-0.12802	0.008087	0.007782	0.006866	0.094147	-0.11032	0.012665	-0.052338	-0.31281	0.003357	-0.18356	0.000916	-0.54504	0.007172	0.24735	-0.021057	-0.13184	1.837	-0.021667	0.19592	-0.7016	-0.2269	-0.88547	0.096741	-0.004578	-0.25787	-0.004578	-0.017853	0.0914	-0.001526	-0.014801
14.214	0.016479	-0.14511	0.015259	0.020752	0.013885	0.077515	-0.089874	0.011292	-0.053864	-0.44418	0.001984	-0.025177	0.040283	-0.98938	0.024261	0.063171	0.048828	0.11368	1.0605	0.025024	0.095215	-0.56671	-0.03479	-1.2123	-0.019989	-0.014343	-0.17242	-0.002136	-0.014191	0.15808	-0.001678	-0.008545
14.215	-0.005341	-0.12054	0.006866	-0.001526	-0.007629	0.062256	-0.098724	0.011597	-0.062866	-0.32532	-0.006104	-0.083771	0.075226	-0.4921	0.009766	0.013123	0.094604	0.076904	0.46112	0.06073	0.019073	-0.401	0.27283	-1.1055	0.036469	-0.012817	-0.16937	-0.00885	0.13168	0.20035	-0.004883	-0.002747
14.216	-0.019836	-0.10223	0.003204	-0.003052	-0.007629	0.034332	-0.0914	-0.001526	-0.04425	-0.17654	0.001831	-0.060272	0.073395	-0.66513	-0.006714	-0.070343	0.067902	0.024414	-0.042877	0.004883	-0.14053	-0.22766	0.43991	-0.98892	0.38513	-0.014343	-0.026703	-0.004883	0.21759	0.19348	0	-0.004425
14.217	0.001068	-0.13779	0.022583	-0.007782	-0.018158	0.006256	-0.090942	0.012512	-0.047455	-0.14893	0.004883	-0.069885	0.079651	-0.80566	-0.007782	-0.11627	0.030518	-0.091858	0.23178	-0.097046	0.001678	-0.060272	0.39841	-0.59723	0.28885	-0.01709	0.041656	-0.003815	0.21088	0.13641	0.000305	-0.002441
14.218	0.007477	-0.10315	0.022125	0.000305	-0.001526	0.010834	-0.075073	0.016327	-0.045624	-0.080414	0.015564	-0.06134	0.079956	-0.38544	-0.003357	-0.10727	-0.028992	-0.18051	0.2124	-0.12665	-0.23575	0.11475	0.38406	-0.065308	0.28076	-0.016937	0.10086	0.001984	0.10635	0.06134	0.002136	-0.009308
14.219	-0.009766	-0.048065	0.032501	0.011902	0.001068	0.00412	-0.044556	0.009766	-0.046539	-0.06424	0.007782	-0.072021	0.063782	0.037079	0.002289	-0.075531	-0.030975	-0.18051	0.44708	-0.093994	-0.78339	0.1741	0.15091	0.038757	0.35049	-0.015869	0.13412	-0.00412	0.018005	-0.002289	0.008545	-0.013885
14.22	-0.016785	-0.080872	0.055695	0.014801	0.002136	0.015564	-0.040436	0.007782	-0.042267	-0.12497	-0.000153	-0.059509	0.060577	0.17029	0.005646	-0.065765	-0.017853	-0.28809	0.21851	-0.16312	-0.21469	0.28809	0.15091	0.40726	0.1001	-0.00885	0.1561	-0.002594	-0.2356	-0.010376	0.00061	-0.020294
14.221	-0.00946	-0.079651	0.02182	0.017242	0.017548	0.002594	-0.037231	0.006866	-0.034943	-0.13214	0.000763	-0.052032	0.083771	0.1532	0.022583	-0.043793	-0.045624	-0.48843	0.22919	-0.28564	0.33066	0.30655	0.089569	0.36591	-0.018921	-0.002441	0.19409	-0.000458	-0.078583	-0.045776	0.000153	-0.014801
14.222	-0.019531	-0.044556	0.019989	-0.014496	0.015411	0.012054	-0.059662	0.007019	-0.041199	-0.074921	0.002899	-0.046539	0.076447	0.12619	0.022278	-0.039825	-0.043945	-0.6842	0.22156	-0.2507	0.23895	0.032654	0.0177	0.64453	-0.14313	-0.004425	0.24094	-0.007324	-0.177	-0.021515	0.001373	-0.011139
14.223	-0.000153	-0.019226	0.04425	0.004272	0.00824	0.036621	-0.032654	0.006714	-0.048676	-0.017853	0.006866	-0.03418	0.063019	0.16846	0.024872	-0.030518	-0.033569	-0.66986	0.070038	-0.039215	0.17563	-0.33447	0.15472	1.0356	-0.50278	-0.007477	0.30624	-0.001373	-0.13123	-0.006561	-0.002289	-0.010681
14.224	-0.009918	-0.04425	0.046539	-0.006714	0.007019	0.037537	-0.044098	0.005951	-0.043793	-0.020905	-0.002289	-0.033875	0.064087	0.14679	0.013885	-0.02121	0.00061	-0.47012	0.085602	0.19089	0.00946	-0.37323	0.3595	1.1432	-0.20569	-0.014191	0.16602	-0.001526	-0.087433	-0.091095	-0.002594	-0.014954
14.225	0.006409	-0.032196	0.046082	-0.002136	0.010986	0.042267	-0.036621	0.009308	-0.03891	0.016327	0.008698	-0.024109	0.041962	0.12177	0.026245	-0.018616	0.007629	-0.36148	-0.061798	0.37994	-0.17319	-0.38361	0.46799	0.69855	-0.024261	-0.011139	-0.003815	0.000153	-0.093689	-0.075073	-0.002594	-0.012817
14.226	-0.00061	-0.019226	0.043335	0.003967	-0.00412	0.000458	-0.039673	0.010071	-0.029602	-0.065613	0.003052	-0.017853	0.021973	0.11734	0.026855	-0.036469	-0.00351	-0.26169	0.31204	0.38727	-0.091248	-0.31876	0.35736	0.41306	-0.015869	-0.011749	-0.053864	-0.002289	-0.13001	-0.08667	-0.000153	-0.007782
14.227	-0.000916	0.029602	0.049744	0	-0.005951	-0.11276	-0.032959	0.008698	-0.028992	-0.1619	0.012054	-0.018005	0.013428	0.12634	0.027466	-0.008545	-0.023651	-0.17532	-0.10544	0.14603	0.077362	-0.24185	-0.009918	0.20569	0.020752	-0.011444	-0.10132	0.000458	-0.062408	-0.11276	-0.001526	-0.010986
14.228	0.011444	0.052643	0.072784	-0.002441	0.016937	-0.14328	-0.049896	0.009613	-0.010986	-0.10208	0.00412	-0.005035	0.04715	0.13626	0.024109	-0.012665	-0.10223	0.029755	-0.31586	-0.092316	0.4747	-0.16876	-0.25742	0.010223	0.13977	-0.003662	0.074615	0.002136	0.048523	-0.15656	-0.003204	-0.009308
14.229	0.003357	0.048981	0.073853	0.006104	0.011749	-0.10239	-0.041656	0.006256	-0.014191	-0.078735	0.002899	-0.001678	0.047455	0.14038	0.015106	-0.009308	-0.033112	0.049591	-0.20599	-0.006866	0.41748	-0.12329	-0.42801	-0.15839	0.087433	-0.001831	0.11154	0.002594	0.13779	-0.2533	0.000763	-0.00824
